<?xml version="1.0" encoding="UTF-8" standalone="no"?>
<!-- Created with Inkscape (http://www.inkscape.org/) -->
<svg xmlns:rdf="http://www.w3.org/1999/02/22-rdf-syntax-ns#" xmlns="http://www.w3.org/2000/svg" xmlns:cc="http://web.resource.org/cc/" xmlns:xlink="http://www.w3.org/1999/xlink" xmlns:dc="http://purl.org/dc/elements/1.1/" xmlns:svg="http://www.w3.org/2000/svg" xmlns:inkscape="http://www.inkscape.org/namespaces/inkscape" xmlns:sodipodi="http://sodipodi.sourceforge.net/DTD/sodipodi-0.dtd" xmlns:ns1="http://sozi.baierouge.fr" id="svg557" viewBox="0 0 744.09 496.06" version="1.0" y="0" x="0" inkscape:version="0.91 r13725">
  <rect id="rect657" style="fill-rule:evenodd;stroke-width:1pt;fill:#000000" height="496.06" width="744.09" y="-.000015" x="0"/>
  <g id="g682" transform="translate(-2.5344 25.577)">
    <path id="path661" style="stroke-linejoin:round;fill-rule:evenodd;stroke:#000000;stroke-width:4.2556;fill:#ffffff" d="m496.55 244s13.51 3.28 16.93 12.85c2.62 9.98-0.29 17.48-6.45 19.5-6.96 2.83-15.62 0.08-26.36 2.67s-64.89 17.88-71.91 22.72c-7.73 5.64-82.08 40.83-93.26 40.91-5.54 0.43-29.12 28.69-48.39 26.96-6.81-0.81-12.1-12.83-12.9-17.66-3.22-1.21-20.56 1.42-18.32-15.95s40.85-9.29 40.85-9.29c9.68-0.4 14.01 5.04 41.27-6.63 33.51-16.66 106.17-51.76 106.17-51.76s27.41-6.01 41.49-30.16c10.33-21.09 28.73-1.67 30.88 5.84z"/>
    <path id="path660" style="stroke-linejoin:round;fill-rule:evenodd;stroke:#000000;stroke-width:4.2556;fill:#ffffff" d="m253.36 239.45s-14.42 2.27-17.45 12.13c-3.04 9.87 0 16.69 6.07 18.97 6.06 2.27 15.17 1.52 25.79 4.55s64.09 20.57 70.9 25.7c7.49 5.95 80.31 44.2 91.47 44.75 5.52 0.66 23.87 30.11 43.19 29.18 6.85-0.52 15.17-15.43 15.17-15.43s20.49 2.27 18.97-15.17c-1.52-17.45-37.93-12.9-37.93-12.9-9.66-0.8-14.21 4.46-40.96-8.34-32.79-18.04-103.92-56.13-103.92-56.13s-27.14-7.14-40.2-31.86c-9.45-21.5-28.64-2.87-31.1 4.55z"/>
    <path id="path662" style="stroke-linejoin:round;stroke:#000000;stroke-linecap:round;stroke-width:3.4818;fill:none" d="m265.66 256.17c0 0.41-4.03 2.82-2.02 5.24 2.02 2.41 31.4 10.06 31.4 10.06"/>
    <path id="path663" style="stroke-linejoin:round;stroke:#000000;stroke-linecap:round;stroke-width:3.4818;fill:none" d="m483.42 260.2c0 0.4 2.81 5.63 0.4 7.65-2.42 2.01-29.79 8.05-29.79 8.05"/>
    <path id="path664" style="stroke-linejoin:round;stroke:#000000;stroke-linecap:round;stroke-width:3.4818;fill:none" d="m474.16 359.22c0 0.4-5.24 3.22-9.26 2.81-4.03-0.4-24.96-22.94-28.98-22.54"/>
    <path id="path665" style="stroke-linejoin:round;stroke:#000000;stroke-linecap:round;stroke-width:3.4818;fill:none" d="m483.42 342.71c6.44 0.41 6.84 1.21 6.44 1.21"/>
    <path id="path666" style="stroke-linejoin:round;stroke:#000000;stroke-linecap:round;stroke-width:3.4818;fill:none" d="m253.98 336.27c0.41 0 3.63-2.81 6.04-1.21"/>
    <path id="path667" style="stroke-linejoin:round;stroke:#000000;stroke-linecap:round;stroke-width:3.4818;fill:none" d="m266.06 343.12s-0.4 14.49 5.23 15.69c5.64 1.21 12.48-6.03 12.48-6.03"/>
    <path id="selection_to_path" style="stroke-linejoin:round;stroke:#ffffff;stroke-width:1.0317;fill:#ffffff" d="m447.71 208.3c-5.16 0-8.06 0.44-9.04 6.93-3.39-0.53-3.37-6.73-5.92-6.68-3.78 0.05-2.04 4.81-6.02 7.47 0 0-0.39-6.88-1.23-7.43-2.38 0.15-4.04-0.46-4.91 0.36-0.88 0.81-1.67 4.67-2.7 4.67-3.09 1.04-5.26-2.22-8.35-1.19-5.16 2.06-11.35 8.25-1.04 13.41v2.06l-8.25 3.1c-3.09-9.29-6.19-10.32-8.25-21.67-1.03-8.25 1.03-17.53-3.1-25.79-0.93-1.58-7.21 2.56-8.25 3.1-5.16 2.06-8.25 1.03-8.25 9.28l2.06 11.35c0 10.32-9.28 21.67 2.06 34.05 11.35 11.34 31.98 1.03 49.52 2.06 5.16 0 19.6 3.09 22.7-1.03 2.06-4.13-2.06-13.41-2.06-17.54 0 0 2.51-16.46 1.03-16.51z"/>
    <path id="path681" style="stroke:#ffffff;stroke-width:1.0317;fill:#fbffff" d="m291.96 124.83c5.16 3.1 5.16 9.29 6.19 15.47 2.06 10.32 3.09 28.89 11.35 36.11 2.06 2.07 5.16 4.13 7.22 3.1 5.16-1.03 10.32-13.41 12.38-18.57l4.12-14.44s17.54-44.37 17.54-44.37c4.13-8.249 5.16-14.439 12.38-20.629-2.06 5.158-4.12 7.221-6.19 12.38l-6.19 15.479-8.25 23.72-5.16 12.38-9.28 27.86c-5.16 10.32-11.35 12.38-14.45 23.73 0 3.09-2.06 8.25-2.06 10.31 0 3.1 2.06 7.22 3.1 10.32 4.12 12.38 11.34 18.57 24.76 18.57 21.66 0 31.98-14.44 29.91-35.08-2.06-9.28-8.25-26.82-20.63-23.73 1.03 4.13 2.06 9.29 4.13 13.42 4.12 7.22 8.25 9.28 7.22 18.57-3.1 13.41-19.6 20.63-29.92 10.31-6.19-7.22-5.16-17.54-2.06-25.79 4.12 7.22 1.03 9.29 4.12 14.45 3.1 6.18 14.45 7.22 19.61 3.09 5.15-5.16 1.03-12.38-2.07-17.54-3.09-4.13-5.16-13.41-3.09-18.57 2.06-6.19 14.44-26.82 18.57-33.01l5.15-11.35c6.2-9.28 19.61-26.82 27.86-33.012-2.06 7.222-9.28 15.472-13.41 21.662 0 0-17.54 25.79-17.54 25.79-2.06 3.1-11.35 17.54-12.38 20.64-2.06 6.19 4.13 5.16 7.22 4.12 6.19-1.03 18.57-6.19 22.7-9.28 6.19-6.19 3.09-10.32 9.28-15.48 0 4.13 0 8.26-2.06 12.38-4.13 11.35-18.57 13.42-28.89 17.54v2.06c8.26 2.07 22.7-1.03 27.86 3.1 3.09 2.06 13.1 21.1 18.26 24.2 4.75 2.27 5.47-3.57 6.5-6.66 5.04-1.73 4.1 6.7 7.38 6.59 2.31-0.09 2.42-2.47 3.97-6.59 3.42-1.46 4.62 5.34 6.03 5.82 3.11 1.1 4.3-2.99 5.72-3.25 2.06 0 2.8 6.41 7.58 1.46 1.89-2.39-2.83-10.22-3.86-12.29-1.03-5.15-1.03-11.34-1.03-16.5l-8.25 2.06c0-12.38 3.09-15.47 3.09-21.66-1.03-6.19-6.19-11.35-8.25-18.57-2.06-5.16 0-10.32 0-15.48 0-7.22-5.16-11.35-9.29-16.5-7.22-8.258-6.19-10.321-16.5-18.574-12.38-9.285-24.76-14.443-40.24-14.443l-10.31 1.031h-9.29c-17.54 2.064-31.98 9.285-45.39 20.634-8.26 7.221-13.41 11.352-17.54 20.632-7.22 12.38-6.19 24.76-6.19 38.17 0 4.13 1.03 11.35 2.06 15.48 1.03 5.16 4.13 10.31 7.22 14.44l9.29 18.57c1.03 1.03 2.06 3.09 3.09 4.13 8.26 8.25 11.35 1.03 13.42-6.19l3.09-7.23c1.03-6.18-6.19-7.22-11.35-18.56-5.16-12.38-8.25-33.02-8.25-46.43zm115.54 7.22c9.29 1.03 11.35 16.51 9.29 23.73-1.03 3.1-3.09 7.22-6.19 8.25-4.13 0-6.19-3.09-7.22-7.22-2.06-6.19-2.06-21.66 4.12-24.76z"/>
  </g>
  <metadata>
    <rdf:RDF>
      <cc:Work>
        <dc:format>image/svg+xml</dc:format>
        <dc:type rdf:resource="http://purl.org/dc/dcmitype/StillImage"/>
        <cc:license rdf:resource="http://creativecommons.org/licenses/publicdomain/"/>
        <dc:publisher>
          <cc:Agent rdf:about="http://openclipart.org/">
            <dc:title>Openclipart</dc:title>
          </cc:Agent>
        </dc:publisher>
        <dc:title>pirate flag - Henry Every</dc:title>
        <dc:date>2007-12-09T17:53:48</dc:date>
        <dc:description/>
        <dc:source>https://openclipart.org/detail/9658/pirate-flag---henry-every-by-anonymous</dc:source>
        <dc:creator>
          <cc:Agent>
            <dc:title>Anonymous</dc:title>
          </cc:Agent>
        </dc:creator>
        <dc:subject>
          <rdf:Bag>
            <rdf:li>externalsource</rdf:li>
            <rdf:li>flag</rdf:li>
            <rdf:li>historical</rdf:li>
            <rdf:li>pirate</rdf:li>
            <rdf:li>sign</rdf:li>
          </rdf:Bag>
        </dc:subject>
      </cc:Work>
      <cc:License rdf:about="http://creativecommons.org/licenses/publicdomain/">
        <cc:permits rdf:resource="http://creativecommons.org/ns#Reproduction"/>
        <cc:permits rdf:resource="http://creativecommons.org/ns#Distribution"/>
        <cc:permits rdf:resource="http://creativecommons.org/ns#DerivativeWorks"/>
      </cc:License>
    </rdf:RDF>
  </metadata>
</svg>
